<?xml version="1.0" standalone="no"?>
<!DOCTYPE svg PUBLIC "-//W3C//DTD SVG 20010904//EN"
 "http://www.w3.org/TR/2001/REC-SVG-20010904/DTD/svg10.dtd">
<svg version="1.0" xmlns="http://www.w3.org/2000/svg"
 width="560.000000pt" height="560.000000pt" viewBox="0 0 560.000000 560.000000"
 preserveAspectRatio="xMidYMid meet">

<g transform="translate(0.000000,560.000000) scale(0.100000,-0.100000)"
fill="#000000" stroke="none">
<path d="M2519 4850 c-733 -69 -1343 -648 -1553 -1475 -91 -355 -93 -779 -6
-1133 75 -305 211 -594 389 -827 61 -81 220 -244 300 -309 207 -168 435 -278
703 -338 88 -20 131 -23 298 -23 167 0 210 3 298 23 449 101 825 368 1095 777
176 267 303 624 348 980 16 131 13 438 -6 580 -120 902 -726 1605 -1490 1729
-120 20 -270 26 -376 16z m412 -79 c554 -110 1028 -539 1264 -1143 235 -604
194 -1340 -108 -1898 -274 -509 -731 -849 -1235 -921 -110 -15 -402 -6 -502
16 -190 42 -373 121 -547 237 -134 89 -357 308 -453 446 -196 279 -323 602
-376 957 -24 162 -25 493 -1 656 37 252 100 454 207 674 189 386 463 671 814
847 156 78 331 129 526 152 75 9 319 -5 411 -23z"/>
<path d="M2421 4495 c-313 -55 -622 -240 -840 -500 -529 -635 -577 -1605 -114
-2305 98 -148 295 -348 431 -438 580 -385 1306 -277 1775 263 204 235 342 522
412 855 36 170 46 495 21 670 -82 565 -377 1036 -808 1289 -106 63 -227 112
-360 146 -131 34 -381 43 -517 20z m509 -58 c138 -36 243 -79 355 -146 415
-246 703 -707 780 -1246 20 -135 19 -429 0 -564 -57 -386 -219 -729 -470 -989
-128 -133 -240 -217 -390 -292 -185 -92 -311 -126 -505 -136 -241 -13 -468 41
-686 162 -120 67 -207 136 -319 249 -616 622 -678 1709 -139 2424 220 293 541
499 865 556 133 23 388 14 509 -18z"/>
<path d="M2590 3719 c-212 -31 -341 -160 -371 -369 -20 -136 29 -292 116 -368
51 -45 155 -101 232 -127 46 -14 52 -20 48 -38 -3 -12 -21 -100 -40 -196 -19
-96 -36 -176 -38 -177 -2 -2 -38 -7 -81 -11 -67 -7 -81 -12 -94 -32 l-16 -23
92 7 93 7 -5 -23 c-16 -69 -56 -266 -56 -275 0 -11 67 -30 76 -22 2 2 19 77
37 166 19 90 36 164 38 166 5 3 418 46 442 46 14 0 17 -10 17 -62 -1 -202 -96
-371 -250 -446 -133 -65 -288 -64 -427 2 -149 72 -240 212 -260 400 -5 41 -13
71 -20 74 -18 5 -17 -64 2 -150 55 -260 262 -420 525 -405 271 16 457 217 490
528 20 199 -28 349 -143 442 -48 39 -161 98 -224 117 -24 7 -43 14 -43 15 0 0
23 113 50 250 28 137 50 252 50 255 0 7 -70 34 -75 28 -2 -1 -24 -109 -49
-238 -26 -129 -50 -243 -54 -252 -6 -15 -16 -13 -90 17 -105 42 -184 94 -222
147 -89 123 -75 316 32 414 85 79 178 108 325 102 93 -4 109 -8 177 -42 81
-40 130 -88 168 -165 19 -37 23 -62 23 -131 -1 -51 -6 -95 -14 -109 -9 -16
-10 -26 -2 -34 15 -15 18 -9 37 63 54 211 -95 411 -336 451 -62 10 -83 10
-160 -2z m293 -986 c90 -50 168 -143 178 -213 l4 -25 -215 -22 c-118 -12 -216
-20 -218 -18 -3 3 53 298 64 337 5 16 11 15 71 -7 36 -14 88 -37 116 -52z"/>
</g>
</svg>
